<svg xmlns="http://www.w3.org/2000/svg" width="1200" height="630" viewBox="0 0 1200 630">
  <rect width="1200" height="630" fill="#F7F7F7"/>
  <rect x="0" y="0" width="8" height="630" fill="#E2001A"/>
  
  <text x="60" y="110" font-family="Helvetica Neue,Arial,sans-serif" font-size="42" font-weight="900" fill="#111">Beste gravel banden</text>
  <text x="60" y="160" font-family="Helvetica Neue,Arial,sans-serif" font-size="42" font-weight="900" fill="#E2001A">2026</text>
  <text x="60" y="210" font-family="Helvetica Neue,Arial,sans-serif" font-size="20" fill="#555">Top 5 asfalt en onverhard</text>
  <text x="60" y="245" font-family="Helvetica Neue,Arial,sans-serif" font-size="16" fill="#999">Fietsvoeter.nl — Onafhankelijk getest</text>
  <rect x="60" y="275" width="110" height="38" rx="4" fill="#E2001A"/>
  <text x="115" y="300" font-family="Helvetica Neue,Arial,sans-serif" font-size="17" font-weight="700" fill="white" text-anchor="middle">9.0/10</text>
  <text x="60" y="340" font-family="Helvetica Neue,Arial,sans-serif" font-size="14" fill="#888">Breedte</text>
  <text x="60" y="368" font-family="Helvetica Neue,Arial,sans-serif" font-size="28" font-weight="900" fill="#111">35-45mm</text>
  <text x="60" y="415" font-family="Helvetica Neue,Arial,sans-serif" font-size="14" fill="#888">Profiel</text>
  <text x="60" y="443" font-family="Helvetica Neue,Arial,sans-serif" font-size="28" font-weight="900" fill="#111">Half-open</text>
  
  <circle cx="850" cy="320" r="185" fill="none" stroke="#555" stroke-width="55"/>
  <circle cx="850" cy="320" r="185" fill="none" stroke="#E2001A" stroke-width="4"/>
  <circle cx="850" cy="320" r="130" fill="none" stroke="#E2001A" stroke-width="4"/>
  <circle cx="850" cy="320" r="40" fill="#333"/>
  <circle cx="850" cy="320" r="10" fill="#555"/>
  <g transform="rotate(15,850,320)">
    <rect x="780" y="308" width="26" height="24" rx="4" fill="#2a2a2a" stroke="#444" stroke-width="1"/>
    <rect x="784" y="312" width="18" height="16" rx="2" fill="#1a1a1a"/>
  </g>
  <g transform="rotate(45,850,320)">
    <rect x="780" y="308" width="26" height="24" rx="4" fill="#2a2a2a" stroke="#444" stroke-width="1"/>
  </g>
  <g transform="rotate(75,850,320)">
    <rect x="780" y="308" width="26" height="24" rx="4" fill="#2a2a2a" stroke="#444" stroke-width="1"/>
  </g>
  <g transform="rotate(105,850,320)">
    <rect x="780" y="308" width="26" height="24" rx="4" fill="#2a2a2a" stroke="#444" stroke-width="1"/>
  </g>
  <g transform="rotate(135,850,320)">
    <rect x="780" y="308" width="26" height="24" rx="4" fill="#2a2a2a" stroke="#444" stroke-width="1"/>
  </g>
  <g transform="rotate(165,850,320)">
    <rect x="780" y="308" width="26" height="24" rx="4" fill="#2a2a2a" stroke="#444" stroke-width="1"/>
  </g>
  <g transform="rotate(195,850,320)">
    <rect x="780" y="308" width="26" height="24" rx="4" fill="#2a2a2a" stroke="#444" stroke-width="1"/>
  </g>
  <g transform="rotate(225,850,320)">
    <rect x="780" y="308" width="26" height="24" rx="4" fill="#2a2a2a" stroke="#444" stroke-width="1"/>
  </g>
  <g transform="rotate(255,850,320)">
    <rect x="780" y="308" width="26" height="24" rx="4" fill="#2a2a2a" stroke="#444" stroke-width="1"/>
  </g>
  <g transform="rotate(285,850,320)">
    <rect x="780" y="308" width="26" height="24" rx="4" fill="#2a2a2a" stroke="#444" stroke-width="1"/>
  </g>
  <g transform="rotate(315,850,320)">
    <rect x="780" y="308" width="26" height="24" rx="4" fill="#2a2a2a" stroke="#444" stroke-width="1"/>
  </g>
  <g transform="rotate(345,850,320)">
    <rect x="780" y="308" width="26" height="24" rx="4" fill="#2a2a2a" stroke="#444" stroke-width="1"/>
  </g>
  <text x="850" y="315" font-family="Helvetica Neue,Arial,sans-serif" font-size="11" fill="#E2001A" text-anchor="middle" font-weight="700">PIRELLI</text>
  <text x="850" y="330" font-family="Helvetica Neue,Arial,sans-serif" font-size="9" fill="#888" text-anchor="middle">Cinturato H</text>
  <text x="850" y="540" font-family="Helvetica Neue,Arial,sans-serif" font-size="14" fill="#888" text-anchor="middle">Pirelli Cinturato Gravel H — 40mm — Tubeless Ready</text>

  <rect x="0" y="590" width="1200" height="40" fill="#E2001A" opacity="0.9"/>
  <text x="62" y="617" font-family="Helvetica Neue,Arial,sans-serif" font-size="14" fill="white">fietsvoeter.nl</text>
  <text x="600" y="617" font-family="Helvetica Neue,Arial,sans-serif" font-size="14" fill="white" text-anchor="middle">Onafhankelijk getest op eigen ritten</text>
</svg>