<svg xmlns="http://www.w3.org/2000/svg" width="1200" height="630" viewBox="0 0 1200 630">
  <rect width="1200" height="630" fill="#F7F7F7"/>
  <rect x="0" y="0" width="8" height="630" fill="#E2001A"/>
  
  <text x="60" y="110" font-family="Helvetica Neue,Arial,sans-serif" font-size="42" font-weight="900" fill="#111">Beste fietsbril</text>
  <text x="60" y="160" font-family="Helvetica Neue,Arial,sans-serif" font-size="42" font-weight="900" fill="#E2001A">2026</text>
  <text x="60" y="210" font-family="Helvetica Neue,Arial,sans-serif" font-size="20" fill="#555">Top 5 op helderheid getest</text>
  <text x="60" y="245" font-family="Helvetica Neue,Arial,sans-serif" font-size="16" fill="#999">Fietsvoeter.nl — Onafhankelijk getest</text>
  <rect x="60" y="275" width="110" height="38" rx="4" fill="#E2001A"/>
  <text x="115" y="300" font-family="Helvetica Neue,Arial,sans-serif" font-size="17" font-weight="700" fill="white" text-anchor="middle">9.1/10</text>
  <text x="60" y="340" font-family="Helvetica Neue,Arial,sans-serif" font-size="14" fill="#888">Lens</text>
  <text x="60" y="368" font-family="Helvetica Neue,Arial,sans-serif" font-size="28" font-weight="900" fill="#111">Prizm Road</text>
  <text x="60" y="415" font-family="Helvetica Neue,Arial,sans-serif" font-size="14" fill="#888">UV</text>
  <text x="60" y="443" font-family="Helvetica Neue,Arial,sans-serif" font-size="28" font-weight="900" fill="#111">400 nm</text>
  
  <ellipse cx="850" cy="290" rx="240" ry="100" fill="#1a1a2e" rx="20"/>
  <ellipse cx="850" cy="290" rx="220" ry="88" fill="#16213e"/>
  <ellipse cx="850" cy="280" rx="200" ry="72" fill="rgba(255,100,50,0.35)"/>
  <ellipse cx="850" cy="275" rx="190" ry="64" fill="rgba(255,150,80,0.25)"/>
  <ellipse cx="820" cy="262" rx="80" ry="30" fill="rgba(255,255,255,0.12)" transform="rotate(-10,820,262)"/>
  <rect x="630" y="270" width="440" height="40" rx="20" fill="#0a0a1a"/>
  <rect x="635" y="275" width="430" height="30" rx="15" fill="#111128"/>
  <path d="M630 278 Q640 290 630 302" fill="none" stroke="#333" stroke-width="8" stroke-linecap="round"/>
  <path d="M1070 278 Q1060 290 1070 302" fill="none" stroke="#333" stroke-width="8" stroke-linecap="round"/>
  <line x1="630" y1="290" x2="590" y2="290" stroke="#333" stroke-width="6" stroke-linecap="round"/>
  <line x1="1070" y1="290" x2="1110" y2="290" stroke="#333" stroke-width="6" stroke-linecap="round"/>
  <text x="850" y="420" font-family="Helvetica Neue,Arial,sans-serif" font-size="14" fill="#888" text-anchor="middle">Oakley Jawbreaker — Prizm Road lens</text>
  <rect x="700" y="440" width="300" height="32" rx="16" fill="#E2001A" opacity="0.15"/>
  <text x="850" y="462" font-family="Helvetica Neue,Arial,sans-serif" font-size="13" fill="#E2001A" text-anchor="middle" font-weight="600">UV400 — Prizm Road technologie</text>
  <text x="850" y="530" font-family="Helvetica Neue,Arial,sans-serif" font-size="13" fill="#aaa" text-anchor="middle">Optimaal contrast op asfalt en in felle zon</text>

  <rect x="0" y="590" width="1200" height="40" fill="#E2001A" opacity="0.9"/>
  <text x="62" y="617" font-family="Helvetica Neue,Arial,sans-serif" font-size="14" fill="white">fietsvoeter.nl</text>
  <text x="600" y="617" font-family="Helvetica Neue,Arial,sans-serif" font-size="14" fill="white" text-anchor="middle">Onafhankelijk getest op eigen ritten</text>
</svg>