<svg xmlns="http://www.w3.org/2000/svg" width="1200" height="630" viewBox="0 0 1200 630">
  <rect width="1200" height="630" fill="#F7F7F7"/>
  <rect x="0" y="0" width="8" height="630" fill="#E2001A"/>
  <text x="60" y="110" font-family="Helvetica Neue,Arial,sans-serif" font-size="40" font-weight="900" fill="#111">Gravel band profiel</text>
  <text x="60" y="158" font-family="Helvetica Neue,Arial,sans-serif" font-size="40" font-weight="900" fill="#E2001A">2026</text>
  <text x="60" y="202" font-family="Helvetica Neue,Arial,sans-serif" font-size="19" fill="#555">Pirelli vs Schwalbe vergelijking</text>
  <text x="60" y="234" font-family="Helvetica Neue,Arial,sans-serif" font-size="15" fill="#999">Fietsvoeter.nl — Onafhankelijk getest</text>
  <rect x="60" y="262" width="108" height="36" rx="4" fill="#E2001A"/>
  <text x="114" y="286" font-family="Helvetica Neue,Arial,sans-serif" font-size="16" font-weight="700" fill="white" text-anchor="middle">Vergelijking</text>
  <text x="60" y="346" font-family="Helvetica Neue,Arial,sans-serif" font-size="13" fill="#888">Pirelli</text>
  <text x="60" y="374" font-family="Helvetica Neue,Arial,sans-serif" font-size="26" font-weight="900" fill="#111">Half-open</text>
  <text x="60" y="420" font-family="Helvetica Neue,Arial,sans-serif" font-size="13" fill="#888">Schwalbe</text>
  <text x="60" y="448" font-family="Helvetica Neue,Arial,sans-serif" font-size="26" font-weight="900" fill="#111">Fijn/snel</text>
  
  <rect x="630" y="175" width="200" height="370" rx="100" fill="#333" stroke="#555" stroke-width="3"/>
  <rect x="660" y="200" width="140" height="320" rx="70" fill="#222"/>
  <rect x="638" y="230" width="16" height="28" rx="4" fill="#111"/>
  <rect x="638" y="270" width="16" height="28" rx="4" fill="#111"/>
  <rect x="638" y="310" width="16" height="28" rx="4" fill="#111"/>
  <rect x="638" y="350" width="16" height="28" rx="4" fill="#111"/>
  <rect x="638" y="390" width="16" height="28" rx="4" fill="#111"/>
  <rect x="806" y="230" width="16" height="28" rx="4" fill="#111"/>
  <rect x="806" y="270" width="16" height="28" rx="4" fill="#111"/>
  <rect x="806" y="310" width="16" height="28" rx="4" fill="#111"/>
  <rect x="806" y="350" width="16" height="28" rx="4" fill="#111"/>
  <rect x="806" y="390" width="16" height="28" rx="4" fill="#111"/>
  <text x="730" y="555" font-family="Helvetica Neue,Arial,sans-serif" font-size="12" fill="#888" text-anchor="middle">Pirelli Cinturato H</text>
  <rect x="890" y="185" width="200" height="370" rx="100" fill="#444" stroke="#666" stroke-width="3"/>
  <rect x="920" y="210" width="140" height="320" rx="70" fill="#333"/>
  <rect x="898" y="240" width="10" height="18" rx="3" fill="#222"/>
  <rect x="898" y="270" width="10" height="18" rx="3" fill="#222"/>
  <rect x="898" y="300" width="10" height="18" rx="3" fill="#222"/>
  <rect x="898" y="330" width="10" height="18" rx="3" fill="#222"/>
  <rect x="898" y="360" width="10" height="18" rx="3" fill="#222"/>
  <rect x="898" y="390" width="10" height="18" rx="3" fill="#222"/>
  <rect x="898" y="420" width="10" height="18" rx="3" fill="#222"/>
  <rect x="1072" y="240" width="10" height="18" rx="3" fill="#222"/>
  <rect x="1072" y="270" width="10" height="18" rx="3" fill="#222"/>
  <rect x="1072" y="300" width="10" height="18" rx="3" fill="#222"/>
  <rect x="1072" y="330" width="10" height="18" rx="3" fill="#222"/>
  <rect x="1072" y="360" width="10" height="18" rx="3" fill="#222"/>
  <rect x="1072" y="390" width="10" height="18" rx="3" fill="#222"/>
  <rect x="1072" y="420" width="10" height="18" rx="3" fill="#222"/>
  <text x="990" y="555" font-family="Helvetica Neue,Arial,sans-serif" font-size="12" fill="#888" text-anchor="middle">Schwalbe G-One Allround</text>
  <line x1="860" y1="160" x2="860" y2="570" stroke="#ddd" stroke-width="1" stroke-dasharray="5,4"/>
  <text x="860" y="145" font-family="Helvetica Neue,Arial,sans-serif" font-size="13" fill="#999" text-anchor="middle">Profielvergelijking</text>

  <rect x="0" y="590" width="1200" height="40" fill="#E2001A" opacity="0.9"/>
  <text x="62" y="617" font-family="Helvetica Neue,Arial,sans-serif" font-size="14" fill="white">fietsvoeter.nl</text>
  <text x="600" y="617" font-family="Helvetica Neue,Arial,sans-serif" font-size="14" fill="white" text-anchor="middle">Onafhankelijk getest op eigen ritten</text>
</svg>