<svg xmlns="http://www.w3.org/2000/svg" width="1200" height="630" viewBox="0 0 1200 630">
  <rect width="1200" height="630" fill="#F7F7F7"/>
  <rect x="0" y="0" width="8" height="630" fill="#E2001A"/>
  <text x="60" y="110" font-family="Helvetica Neue,Arial,sans-serif" font-size="40" font-weight="900" fill="#111">MTB schoen grip</text>
  <text x="60" y="158" font-family="Helvetica Neue,Arial,sans-serif" font-size="40" font-weight="900" fill="#E2001A">2026</text>
  <text x="60" y="202" font-family="Helvetica Neue,Arial,sans-serif" font-size="19" fill="#555">Stealth Phantom rubber zool</text>
  <text x="60" y="234" font-family="Helvetica Neue,Arial,sans-serif" font-size="15" fill="#999">Fietsvoeter.nl — Onafhankelijk getest</text>
  <rect x="60" y="262" width="108" height="36" rx="4" fill="#E2001A"/>
  <text x="114" y="286" font-family="Helvetica Neue,Arial,sans-serif" font-size="16" font-weight="700" fill="white" text-anchor="middle">Vergelijking</text>
  <text x="60" y="346" font-family="Helvetica Neue,Arial,sans-serif" font-size="13" fill="#888">Five Ten</text>
  <text x="60" y="374" font-family="Helvetica Neue,Arial,sans-serif" font-size="26" font-weight="900" fill="#111">Stealth rubber</text>
  <text x="60" y="420" font-family="Helvetica Neue,Arial,sans-serif" font-size="13" fill="#888">Standard</text>
  <text x="60" y="448" font-family="Helvetica Neue,Arial,sans-serif" font-size="26" font-weight="900" fill="#111">Minder grip</text>
  
  <rect x="640" y="185" width="180" height="340" rx="30" fill="#222"/>
  <rect x="650" y="195" width="160" height="320" rx="24" fill="#1a1a1a"/>
  <rect x="658" y="205" width="144" height="30" rx="8" fill="#111"/>
  <rect x="658" y="245" width="60" height="25" rx="5" fill="#111"/>
  <rect x="726" y="245" width="76" height="25" rx="5" fill="#111"/>
  <rect x="658" y="278" width="144" height="22" rx="5" fill="#111"/>
  <rect x="658" y="308" width="80" height="22" rx="5" fill="#111"/>
  <rect x="746" y="308" width="56" height="22" rx="5" fill="#111"/>
  <rect x="658" y="338" width="144" height="20" rx="5" fill="#111"/>
  <rect x="658" y="366" width="70" height="80" rx="12" fill="#111"/>
  <rect x="736" y="366" width="66" height="80" rx="12" fill="#111"/>
  <text x="730" y="545" font-family="Helvetica Neue,Arial,sans-serif" font-size="12" fill="#E2001A" text-anchor="middle">Five Ten Stealth</text>
  <rect x="900" y="185" width="180" height="340" rx="30" fill="#444"/>
  <rect x="910" y="195" width="160" height="320" rx="24" fill="#3a3a3a"/>
  <rect x="918" y="205" width="144" height="26" rx="5" fill="#333"/>
  <rect x="918" y="240" width="144" height="22" rx="5" fill="#333"/>
  <rect x="918" y="271" width="144" height="20" rx="5" fill="#333"/>
  <rect x="918" y="300" width="144" height="20" rx="5" fill="#333"/>
  <rect x="918" y="330" width="144" height="18" rx="5" fill="#333"/>
  <rect x="918" y="356" width="70" height="80" rx="10" fill="#333"/>
  <rect x="996" y="356" width="66" height="80" rx="10" fill="#333"/>
  <text x="990" y="545" font-family="Helvetica Neue,Arial,sans-serif" font-size="12" fill="#888" text-anchor="middle">Standaard rubber</text>
  <line x1="870" y1="160" x2="870" y2="560" stroke="#ddd" stroke-width="1" stroke-dasharray="5,4"/>

  <rect x="0" y="590" width="1200" height="40" fill="#E2001A" opacity="0.9"/>
  <text x="62" y="617" font-family="Helvetica Neue,Arial,sans-serif" font-size="14" fill="white">fietsvoeter.nl</text>
  <text x="600" y="617" font-family="Helvetica Neue,Arial,sans-serif" font-size="14" fill="white" text-anchor="middle">Onafhankelijk getest op eigen ritten</text>
</svg>