<svg xmlns="http://www.w3.org/2000/svg" width="1200" height="630" viewBox="0 0 1200 630">
  <rect width="1200" height="630" fill="#F7F7F7"/>
  <rect x="0" y="0" width="8" height="630" fill="#E2001A"/>
  <text x="60" y="110" font-family="Helvetica Neue,Arial,sans-serif" font-size="40" font-weight="900" fill="#111">MTB helm trail</text>
  <text x="60" y="158" font-family="Helvetica Neue,Arial,sans-serif" font-size="40" font-weight="900" fill="#E2001A">2026</text>
  <text x="60" y="202" font-family="Helvetica Neue,Arial,sans-serif" font-size="19" fill="#555">Fox Speedframe Pro in actie</text>
  <text x="60" y="234" font-family="Helvetica Neue,Arial,sans-serif" font-size="15" fill="#999">Fietsvoeter.nl — Onafhankelijk getest</text>
  <rect x="60" y="262" width="108" height="36" rx="4" fill="#E2001A"/>
  <text x="114" y="286" font-family="Helvetica Neue,Arial,sans-serif" font-size="16" font-weight="700" fill="white" text-anchor="middle">9.1/10</text>
  <text x="60" y="346" font-family="Helvetica Neue,Arial,sans-serif" font-size="13" fill="#888">Ventilatie</text>
  <text x="60" y="374" font-family="Helvetica Neue,Arial,sans-serif" font-size="26" font-weight="900" fill="#111">18 kanalen</text>
  <text x="60" y="420" font-family="Helvetica Neue,Arial,sans-serif" font-size="13" fill="#888">Gewicht</text>
  <text x="60" y="448" font-family="Helvetica Neue,Arial,sans-serif" font-size="26" font-weight="900" fill="#111">310g</text>
  
  <ellipse cx="860" cy="295" rx="225" ry="145" fill="#222"/>
  <ellipse cx="860" cy="210" rx="205" ry="140" fill="#2a2a2a"/>
  <ellipse cx="820" cy="185" rx="55" ry="26" fill="rgba(255,255,255,0.07)" transform="rotate(-12,820,185)"/>
  <rect x="740" y="190" width="13" height="48" rx="6" fill="#111"/>
  <rect x="771" y="180" width="13" height="58" rx="6" fill="#111"/>
  <rect x="802" y="175" width="13" height="63" rx="6" fill="#111"/>
  <rect x="833" y="173" width="13" height="65" rx="6" fill="#111"/>
  <rect x="864" y="175" width="13" height="63" rx="6" fill="#111"/>
  <rect x="895" y="180" width="13" height="58" rx="6" fill="#111"/>
  <rect x="926" y="190" width="13" height="48" rx="6" fill="#111"/>
  <path d="M640 300 Q860 272 1080 300 L1080 278 Q860 248 640 278 Z" fill="#E2001A"/>
  <path d="M650 358 Q860 424 1070 358 L1070 380 Q860 448 650 380 Z" fill="#111"/>
  <rect x="770" y="465" width="180" height="32" rx="16" fill="#E2001A" opacity="0.88"/>
  <text x="860" y="486" font-family="Helvetica Neue,Arial,sans-serif" font-size="13" font-weight="700" fill="white" text-anchor="middle">MIPS bescherming</text>
  <text x="860" y="545" font-family="Helvetica Neue,Arial,sans-serif" font-size="13" fill="#888" text-anchor="middle">Fox Speedframe Pro — Trail helm — ★★★★★ Virginia Tech</text>

  <rect x="0" y="590" width="1200" height="40" fill="#E2001A" opacity="0.9"/>
  <text x="62" y="617" font-family="Helvetica Neue,Arial,sans-serif" font-size="14" fill="white">fietsvoeter.nl</text>
  <text x="600" y="617" font-family="Helvetica Neue,Arial,sans-serif" font-size="14" fill="white" text-anchor="middle">Onafhankelijk getest op eigen ritten</text>
</svg>