<svg xmlns="http://www.w3.org/2000/svg" width="1200" height="630" viewBox="0 0 1200 630">
  <rect width="1200" height="630" fill="#F7F7F7"/>
  <rect x="0" y="0" width="8" height="630" fill="#E2001A"/>
  <text x="60" y="110" font-family="Helvetica Neue,Arial,sans-serif" font-size="40" font-weight="900" fill="#111">Vermogenstraining</text>
  <text x="60" y="158" font-family="Helvetica Neue,Arial,sans-serif" font-size="40" font-weight="900" fill="#E2001A">2026</text>
  <text x="60" y="202" font-family="Helvetica Neue,Arial,sans-serif" font-size="19" fill="#555">Watt zones en FTP analyse</text>
  <text x="60" y="234" font-family="Helvetica Neue,Arial,sans-serif" font-size="15" fill="#999">Fietsvoeter.nl — Onafhankelijk getest</text>
  <rect x="60" y="262" width="108" height="36" rx="4" fill="#E2001A"/>
  <text x="114" y="286" font-family="Helvetica Neue,Arial,sans-serif" font-size="16" font-weight="700" fill="white" text-anchor="middle">Training</text>
  <text x="60" y="346" font-family="Helvetica Neue,Arial,sans-serif" font-size="13" fill="#888">FTP</text>
  <text x="60" y="374" font-family="Helvetica Neue,Arial,sans-serif" font-size="26" font-weight="900" fill="#111">295W</text>
  <text x="60" y="420" font-family="Helvetica Neue,Arial,sans-serif" font-size="13" fill="#888">W/kg</text>
  <text x="60" y="448" font-family="Helvetica Neue,Arial,sans-serif" font-size="26" font-weight="900" fill="#111">3.93 W/kg</text>
  
  <rect x="640" y="175" width="530" height="340" rx="8" fill="#0d1117"/>
  <rect x="655" y="190" width="500" height="310" rx="6" fill="#001a00"/>
  <text x="905" y="255" font-family="Courier New,monospace" font-size="48" font-weight="900" fill="#00ff41" text-anchor="middle">295W</text>
  <text x="905" y="285" font-family="Courier New,monospace" font-size="16" fill="#00bb30" text-anchor="middle">FTP VERMOGEN</text>
  <line x1="665" y1="305" x2="1155" y2="305" stroke="#003300" stroke-width="1"/>
  <rect x="665" y="315" width="60" height="40" fill="#003300"/>
  <rect x="725" y="315" width="80" height="40" fill="#005500"/>
  <rect x="805" y="315" width="100" height="40" fill="#007700"/>
  <rect x="905" y="315" width="80" height="40" fill="#E2001A" opacity="0.8"/>
  <rect x="985" y="315" width="70" height="40" fill="#aa0000"/>
  <rect x="1055" y="315" width="50" height="40" fill="#880000"/>
  <text x="695" y="342" font-family="Courier New,monospace" font-size="10" fill="#00cc22" text-anchor="middle">Z1</text>
  <text x="765" y="342" font-family="Courier New,monospace" font-size="10" fill="#00cc22" text-anchor="middle">Z2</text>
  <text x="855" y="342" font-family="Courier New,monospace" font-size="10" fill="#00cc22" text-anchor="middle">Z3</text>
  <text x="945" y="342" font-family="Courier New,monospace" font-size="10" fill="white" text-anchor="middle">Z4</text>
  <text x="1020" y="342" font-family="Courier New,monospace" font-size="10" fill="white" text-anchor="middle">Z5</text>
  <text x="1080" y="342" font-family="Courier New,monospace" font-size="10" fill="white" text-anchor="middle">Z6</text>
  <text x="700" y="400" font-family="Courier New,monospace" font-size="13" fill="#00aa22">33.4 km/h</text>
  <text x="905" y="400" font-family="Courier New,monospace" font-size="13" fill="#00aa22" text-anchor="middle">159 bpm</text>
  <text x="1140" y="400" font-family="Courier New,monospace" font-size="13" fill="#00aa22" text-anchor="end">92 rpm</text>
  <text x="905" y="485" font-family="Helvetica Neue,Arial,sans-serif" font-size="13" fill="#888" text-anchor="middle">Garmin Edge 540 Solar — Favero Assioma DUO</text>

  <rect x="0" y="590" width="1200" height="40" fill="#E2001A" opacity="0.9"/>
  <text x="62" y="617" font-family="Helvetica Neue,Arial,sans-serif" font-size="14" fill="white">fietsvoeter.nl</text>
  <text x="600" y="617" font-family="Helvetica Neue,Arial,sans-serif" font-size="14" fill="white" text-anchor="middle">Onafhankelijk getest op eigen ritten</text>
</svg>